<?xml version="1.0" encoding="UTF-8"?>
<svg id="Layer_2" data-name="Layer 2" xmlns="http://www.w3.org/2000/svg" viewBox="0 0 294.31 230.73">
  <defs>
    <style>
      .cls-1 {
        fill: #010101;
      }

      .cls-2 {
        fill: #fff;
      }
    </style>
  </defs>
  <g id="_Слой_1" data-name="Слой 1">
    <polygon class="cls-1" points="189.3 0 189.3 227.66 294.31 189.72 294.31 59.69 189.3 0"/>
    <path class="cls-1" d="M184.39.98v229.75L0,201.03V55.8S184.39.98,184.39.98Z"/>
    <g>
      <path class="cls-2" d="M206.07,109.21c-.12-24.39-.27-48.77-.29-73.16,9.42,4.58,18.77,9.35,28.06,14.2-.06,4.42-.1,6.91-.16,12.27-8.82-4.31-13.33-6.5-22.12-10.58,2.01-2.45,3.03-3.53,5.07-5.43,0,21.3.06,42.6.12,63.9-4.26-.52-6.4-.76-10.69-1.2ZM211.67,81.17c-.03-7.22-.04-10.71-.06-17.19,8.1,3.3,12.22,5.06,20.33,8.57-.05,5.76-.07,8.81-.11,15.09-8.02-2.65-12.09-3.99-20.16-6.46Z"/>
      <path class="cls-2" d="M244.72,111.28c-3.03-3.25-5.39-7.8-7.04-13.52-1.65-5.71-2.47-12.19-2.4-18.77.07-6.57,1-11.56,2.83-14.98,1.82-3.42,4.39-5.1,7.64-5.45,3.26-.35,7,.66,11.12,2.81,4.15,2.17,7.61,4.95,10.44,8.41,2.83,3.45,4.89,7.33,6.27,11.64,1.38,4.31,1.99,8.73,1.83,13.42-.16,4.7-1.04,8.56-2.7,11.89-1.66,3.33-3.96,5.92-6.94,7.73-2.98,1.81-6.46,2.67-10.49,2.21-3.99-.45-7.52-2.15-10.55-5.4ZM260.95,101.95c1.46-.73,2.58-2.02,3.39-3.86.81-1.83,1.26-4.12,1.35-6.91.1-2.79-.19-5.31-.86-7.62-.67-2.32-1.7-4.32-3.09-6.04-1.4-1.72-3.13-3.1-5.21-4.12-2.08-1.02-3.91-1.4-5.45-1.04-1.55.35-2.76,1.42-3.62,3.28-.86,1.86-1.32,4.43-1.39,7.72-.07,3.29.28,6.36,1.03,9.06.75,2.71,1.86,4.91,3.32,6.58,1.46,1.67,3.22,2.74,5.27,3.28,2.05.54,3.79.4,5.25-.33Z"/>
      <path class="cls-2" d="M214.82,188.79c-3.12-1.15-5.58-3.59-7.33-7.96-1.75-4.37-2.65-10.46-2.68-18.43-.03-7.97.8-15.78,2.5-22.54,1.7-6.75,4.13-11.99,7.29-15.46,3.16-3.47,6.85-4.89,11.04-4.61,4.23.28,7.88,2.15,10.94,5.22,3.06,3.07,5.36,7.08,6.93,11.98,1.57,4.9,2.29,10.38,2.19,16.57-.1,6.19-.99,11.58-2.65,16.4-1.67,4.82-3.98,8.72-6.96,11.85-2.98,3.13-6.47,5.27-10.53,6.6-4.03,1.32-7.61,1.53-10.74.38ZM230.9,171.59c1.45-1.66,2.56-3.79,3.34-6.46.77-2.67,1.18-5.75,1.21-9.35.03-3.6-.33-6.71-1.07-9.33-.75-2.61-1.85-4.61-3.32-5.95-1.47-1.34-3.26-1.97-5.37-1.8-2.11.17-3.93,1.1-5.44,2.85-1.52,1.75-2.68,4.26-3.47,7.47-.8,3.2-1.19,6.94-1.18,11.01.01,4.07.43,7.32,1.24,9.79.81,2.47,1.97,4.07,3.46,4.92,1.5.85,3.28.92,5.35.29,2.06-.63,3.81-1.77,5.27-3.43Z"/>
      <path class="cls-2" d="M248.87,179.71c.33-19,.69-38,1.07-57,6.44.34,9.61.5,15.81.66,3.64.1,6.72,1.16,9.31,2.94,2.59,1.78,4.56,4.11,5.94,7.11,1.39,3,2.08,6.5,2.04,10.92-.04,4.46-.8,8.76-2.34,12.89-1.54,4.13-3.72,7.8-6.52,10.82-2.8,3.02-6.06,5.15-9.73,6.39-6.27,2.12-9.36,3.16-15.59,5.26ZM258.77,168.04c-1.24-1.27-1.85-1.93-3.09-3.27,3.49-1.09,5.23-1.64,8.72-2.76,1.81-.58,3.37-1.6,4.68-3.02,1.3-1.43,2.31-3.16,3.01-5.2.7-2.04,1.08-4.3,1.14-6.82.06-2.47-.22-4.5-.83-6.15-.61-1.66-1.53-2.86-2.77-3.64-1.24-.78-2.76-1.09-4.56-.87-3.47.41-5.22.6-8.75.97,1.33-1.94,2-2.89,3.32-4.73-.32,11.83-.62,23.67-.87,35.5Z"/>
    </g>
    <path class="cls-2" d="M85.92,40.27c.5,1.67,1.18,2.96.96,4.73-.23,1.91-.8,3.9-1.1,5.8-3.56,23.26-5.22,46.73-6.93,70.19-1.02,13.94-2.19,27.83-2.57,41.77-.09,3.24-.03,6.99-.61,10.16-.29,1.58-.58,2.71-2.02,3.66-3.65,2.4-9.41,3.54-13.63,5.07-2.16.78-4.73,2.35-6.99,2.35-.31,0-1.21.01-1.36-.21-.1-1.14.12-2.29.14-3.43.2-10.36.9-20.74,1.03-31.1.01-1.13.81-3.96-1.01-3.88-2.71.12-7.09,4.69-9.57,6.19-.54.32-1.7.53-1.87,1.16,0,2.14-.15,4.28-.23,6.42-.27,7.86-.35,15.73-.44,23.58-.1,8.72-5.85,8.17-12.67,11.39-2.68,1.26-8.27,5.11-11.06,5.07-1.03-.01-1.81-.38-1.82-1.44-.01-1.02.38-2.44.38-3.62,0-.66-.21-1.45-.19-2.1.2-9.22,1.34-18.14,1.57-27.43.04-1.65.95-8.38.94-9.77-.03-5.42.5-5.85.6-11.27.06-2.94-.03-5.85.06-8.8.22-7.87.57-15.75,1.21-23.54.18-2.2.04-7.64,1.51-9.22,6.31-5.32,12.82-10.38,19.24-15.57.72-.58,2.82-2.71,3.54-2.9.13-.03.36-.09.45-.02.99,3.03.59,6.33.52,9.46-.26,11.59-1.75,23.09-2.46,34.65-.1,1.58-.38,2.46-.27,3.84.11,1.33-.05,2.89-.19,4.24-.1,1-.15,3.48,1.56,2.79l11.45-7.77c.17-.23.28-.56.33-.84.37-1.97.41-4.5.55-6.52,1.49-20.98,1.12-43.01,4.44-63.77.37-2.34,1.32-7.47,2.44-9.43.52-.92,2.67-1.84,3.74-2.33,4.73-2.18,9.8-3.77,14.71-5.57,1.51-.55,3.48-1.59,4.95-1.96.23-.06.46-.15.7-.05Z"/>
    <path class="cls-2" d="M156.9,34.75c2.88-.17,9.8,3.12,12.64,4.4,2.44,1.1,5.35,2.35,7.61,3.7,2.13,1.27,4.38,3.01,3.8,5.62-10.67,28.13-22.16,56.06-31.04,84.77-1.77,5.73-2.91,11.46-4.55,17.14-.47,1.62-1.28,4.96-3.29,5.3-2.24.38-4.52.52-6.73,1.15-2.17.62-5.3,2.43-7.59,1.99-.66-.12-1.34-.62-1.62-1.19-1.03-2.12.56-6.51,1.03-8.84,6.43-31.73,11.48-63.49,20.82-94.63.51-1.7,1.16-4.5,1.9-6.01.36-.74,1.29-3.67,1.48-4.19.65-1.79.63-2.17,1.24-4.22s1.57-4.83,4.3-4.99Z"/>
    <path class="cls-2" d="M115.91,115.13c.2,0,.91.38,1.07.52.42.36.6,1.2.65,1.72.45,5.08-1.83,11.82-2.76,16.89-1.54,8.43-1.09,17.28-3.03,25.65-.27,1.18-.79,3.38-1.53,4.32-1.26,1.6-9.12,4.33-11.46,5.1-3.13,1.04-6.39,1.78-9.53,2.83-1.41.23-2.32-1.59-2.5-2.68-.25-1.54-.04-2.56.05-4.01.61-9.92,2.18-19.77,3.82-29.56.45-2.67,1.18-5.33,1.52-8.02.24-1.94-.21-5.17,1.81-6.39,1.75-1.06,5.89-.91,8.05-1.25,3.7-.58,7.44-2.87,10.92-4.18.56-.21,2.46-.97,2.91-.96Z"/>
    <path class="cls-2" d="M116.33,107.45c-9.44,8.48-21.13-1.06-24.07-10.31-2.77-8.73-.19-23.79,11.81-24.73,16.84-1.31,22.85,25.52,12.26,35.04Z"/>
    <path class="cls-2" d="M140.21,173.58c6.5,4.84,9.42,12.62,7.64,18.88-3.06,10.73-18.37,12.64-28.02,3.66-6.82-6.35-7.92-15.85-1.88-22.29,5.53-5.9,15.41-5.35,22.26-.25Z"/>
  </g>
</svg>